<svg width="25" height="24" viewBox="0 0 25 24" fill="none" xmlns="http://www.w3.org/2000/svg">
<path d="M13.17 23.9767H1.68338C0.952105 23.9767 0.35968 23.3839 0.35968 22.653V1.31709C0.35968 0.585921 0.952198 -0.0065918 1.68338 -0.0065918H23.0194C23.7504 -0.0065918 24.343 0.585921 24.343 1.31709V22.653C24.343 23.384 23.7503 23.9767 23.0194 23.9767H16.9078V14.6891H20.0253L20.4921 11.0695H16.9078V8.75864C16.9078 7.71069 17.1988 6.99655 18.7016 6.99655L20.6183 6.99571V3.75834C20.2868 3.71423 19.149 3.61568 17.8253 3.61568C15.0619 3.61568 13.17 5.30248 13.17 8.40017V11.0695H10.0445V14.6891H13.17V23.9767Z" fill="#0A142F"/>
</svg>
