<svg width="25" height="20" viewBox="0 0 25 20" fill="none" xmlns="http://www.w3.org/2000/svg">
<path d="M24.2986 2.35806C23.4173 2.75937 22.4685 3.03076 21.4733 3.15202C22.4897 2.5284 23.2695 1.53956 23.6369 0.361617C22.6853 0.939042 21.6338 1.35912 20.5104 1.58431C19.6151 0.604136 18.3355 -0.00793457 16.9193 -0.00793457C14.2038 -0.00793457 12.0007 2.25124 12.0007 5.03731C12.0007 5.43285 12.043 5.81684 12.1274 6.18639C8.038 5.97563 4.41312 3.96908 1.9848 0.913058C1.56108 1.66082 1.31895 2.5284 1.31895 3.45228C1.31895 5.20188 2.18751 6.74649 3.50796 7.6516C2.70274 7.62706 1.94257 7.39754 1.27813 7.02221V7.08428C1.27813 9.52968 2.97443 11.5694 5.22678 12.0314C4.81432 12.1497 4.37933 12.2089 3.93027 12.2089C3.61354 12.2089 3.30384 12.1786 3.00399 12.1194C3.63043 14.1231 5.44639 15.5825 7.6002 15.6215C5.91657 16.9756 3.79372 17.7825 1.48929 17.7825C1.09231 17.7825 0.699554 17.7594 0.315247 17.7132C2.49299 19.1424 5.08038 19.9782 7.85781 19.9782C16.9095 19.9782 21.8576 12.2912 21.8576 5.6234C21.8576 5.40398 21.8534 5.18456 21.8449 4.96947C22.8064 4.25779 23.6412 3.37 24.2986 2.35806Z" fill="#0A142F"/>
</svg>
