<svg width="25" height="21" viewBox="0 0 25 21" fill="none" xmlns="http://www.w3.org/2000/svg">
<path d="M24.2421 4.84396C24.1377 7.20901 22.5048 10.442 19.3545 14.5444C16.0942 18.8341 13.3317 20.9775 11.074 20.9775C9.67797 20.9775 8.49485 19.6734 7.52889 17.0567C6.88163 14.6559 6.2386 12.2551 5.59275 9.86147C4.87357 7.24333 4.10362 5.93497 3.28009 5.93497C3.101 5.93497 2.4763 6.31675 1.39894 7.08175L0.270813 5.60752C1.45252 4.55655 2.61731 3.50129 3.76659 2.44888C5.34033 1.0676 6.52345 0.342645 7.31314 0.266861C9.17455 0.0838341 10.3224 1.37503 10.7553 4.13616C11.2165 7.1175 11.5408 8.97064 11.7199 9.69703C12.2586 12.1679 12.848 13.4005 13.4939 13.4005C13.9945 13.4005 14.7475 12.6026 15.7515 11.0054C16.7556 9.40533 17.29 8.18992 17.3633 7.352C17.5072 5.97072 16.9699 5.28437 15.7515 5.28437C15.1776 5.28437 14.5853 5.40734 13.9775 5.66472C15.1621 1.77683 17.4183 -0.113492 20.7519 -0.00338953C23.2211 0.0666751 24.3873 1.68532 24.2421 4.84396Z" fill="#0A142F"/>
</svg>
