<svg width="56" height="18" viewBox="0 0 56 18" fill="none" xmlns="http://www.w3.org/2000/svg">
<path d="M0.474976 17.526H13.3733V12.7532H13.0569L11.11 17.0389H5.3666V0.96722L7.09449 0.796762V0.480197H0.474976V0.796762L2.2272 0.96722V17.0389L0.474976 17.2094V17.526Z" fill="#ADA9A7"/>
<path d="M13.7482 17.526H17.8854V17.2338L15.8898 17.0389L17.8124 11.4625H23.7019L25.5028 17.0389L23.5315 17.2338V17.526H30.5161V17.2094L28.9585 17.0389L23.2881 0.139282L20.9762 1.11333L15.3301 17.0389L13.7482 17.2094V17.526ZM17.9828 11.0242L20.8788 2.6718L23.5802 11.0242H17.9828Z" fill="#ADA9A7"/>
<path d="M37.7493 17.7208L39.5016 17.3068L42.9087 5.83744L46.8025 17.7208L48.5547 17.3068L53.6411 0.96722L55.1986 0.796762V0.480197H51.0857V0.796762L53.1057 0.96722L48.9441 14.3847L44.7582 0.96722L46.6322 0.796762V0.480197H39.964V0.796762L41.3268 0.96722L42.6653 5.03385L39.8909 14.3847L35.6807 0.96722L37.579 0.796762V0.480197H30.8864V0.796762L32.2736 0.96722L37.7493 17.7208Z" fill="#ADA9A7"/>
</svg>
